<?xml version="1.0" standalone="no"?>
<!DOCTYPE svg PUBLIC "-//W3C//DTD SVG 20010904//EN"
 "http://www.w3.org/TR/2001/REC-SVG-20010904/DTD/svg10.dtd">
<svg version="1.0" xmlns="http://www.w3.org/2000/svg"
 width="260.000000pt" height="260.000000pt" viewBox="0 0 260.000000 260.000000"
 preserveAspectRatio="xMidYMid meet">
<metadata>
Created by potrace 1.11, written by Peter Selinger 2001-2013
</metadata>
<g transform="translate(0.000000,260.000000) scale(0.100000,-0.100000)"
fill="#000000" stroke="none">
<path d="M562 2469 l3 -41 74 -19 c97 -25 179 -63 189 -88 4 -11 7 -463 7
-1004 0 -817 -3 -987 -14 -1001 -16 -19 -85 -51 -142 -66 -131 -34 -119 -27
-117 -70 l1 -40 803 0 c756 0 803 1 808 18 9 32 44 207 49 247 3 22 9 65 12
95 4 30 8 65 10 76 3 17 -6 26 -36 39 -22 10 -41 16 -42 14 -2 -2 -26 -52 -55
-110 -55 -115 -103 -169 -169 -190 -25 -8 -132 -13 -308 -15 -281 -4 -365 4
-432 39 -70 37 -65 -32 -65 979 0 502 1 930 1 950 1 24 8 44 22 57 22 20 193
81 228 81 18 0 21 6 21 45 l0 45 -426 0 -425 0 3 -41z"/>
</g>
</svg>
